<!-- Placeholder for 512x512 icon -->
<svg width="512" height="512" viewBox="0 0 512 512" fill="none" xmlns="http://www.w3.org/2000/svg">
  <rect width="512" height="512" rx="54" fill="url(#gradient)"/>
  <defs>
    <linearGradient id="gradient" x1="0%" y1="0%" x2="100%" y2="100%">
      <stop offset="0%" style="stop-color:#1976D2;stop-opacity:1" />
      <stop offset="100%" style="stop-color:#1565C0;stop-opacity:1" />
    </linearGradient>
  </defs>
  
  <!-- School/Church icon -->
  <path d="M256 85.3L128 160V426.7H384V160L256 85.3Z" fill="white" opacity="0.9"/>
  <path d="M256 85.3L341.3 138.7V213.3H170.7V138.7L256 85.3Z" fill="#1976D2"/>
  
  <!-- Cross symbol -->
  <rect x="240" y="170" width="32" height="80" fill="white"/>
  <rect x="220" y="190" width="72" height="32" fill="white"/>
  
  <!-- Book pages -->
  <rect x="180" y="280" width="152" height="100" rx="8" fill="white"/>
  <rect x="190" y="290" width="132" height="4" fill="#1976D2"/>
  <rect x="190" y="305" width="100" height="4" fill="#1976D2"/>
  <rect x="190" y="320" width="120" height="4" fill="#1976D2"/>
  <rect x="190" y="335" width="80" height="4" fill="#1976D2"/>
  <rect x="190" y="350" width="110" height="4" fill="#1976D2"/>
  <rect x="190" y="365" width="90" height="4" fill="#1976D2"/>
  
  <!-- App name -->
  <text x="256" y="460" font-family="Arial, sans-serif" font-size="24" font-weight="bold" text-anchor="middle" fill="white">ESCOLA BÍBLICA</text>
  <text x="256" y="485" font-family="Arial, sans-serif" font-size="16" text-anchor="middle" fill="white" opacity="0.8">DOMINICAL</text>
</svg>